<svg xmlns="http://www.w3.org/2000/svg" version="1.1" xmlns:xlink="http://www.w3.org/1999/xlink" xmlns:svgjs="http://svgjs.dev/svgjs" viewBox="0 0 800 800" opacity="0.5" width="800" height="800"><g stroke-width="0.5" stroke="hsl(261, 60%, 38%)" fill="none"><line x1="0" y1="0" x2="200" y2="200"></line><line x1="200" y1="0" x2="0" y2="200"></line><rect width="200" height="160" x="0" y="0" opacity="0.15"></rect><line x1="200" y1="0" x2="400" y2="200"></line><line x1="400" y1="0" x2="200" y2="200"></line><rect width="200" height="160" x="200" y="0" opacity="0.15"></rect><line x1="400" y1="0" x2="600" y2="200"></line><line x1="600" y1="0" x2="400" y2="200"></line><rect width="200" height="160" x="400" y="0" opacity="0.15"></rect><line x1="600" y1="0" x2="800" y2="200"></line><line x1="800" y1="0" x2="600" y2="200"></line><rect width="200" height="160" x="600" y="0" opacity="0.15"></rect><line x1="800" y1="0" x2="1000" y2="200"></line><line x1="1000" y1="0" x2="800" y2="200"></line><rect width="200" height="160" x="800" y="0" opacity="0.15"></rect><line x1="0" y1="160" x2="200" y2="360"></line><line x1="200" y1="160" x2="0" y2="360"></line><rect width="200" height="160" x="0" y="160" opacity="0.15"></rect><line x1="200" y1="160" x2="400" y2="360"></line><line x1="400" y1="160" x2="200" y2="360"></line><rect width="200" height="160" x="200" y="160" opacity="0.15"></rect><line x1="400" y1="160" x2="600" y2="360"></line><line x1="600" y1="160" x2="400" y2="360"></line><rect width="200" height="160" x="400" y="160" opacity="0.15"></rect><line x1="600" y1="160" x2="800" y2="360"></line><line x1="800" y1="160" x2="600" y2="360"></line><rect width="200" height="160" x="600" y="160" opacity="0.15"></rect><line x1="800" y1="160" x2="1000" y2="360"></line><line x1="1000" y1="160" x2="800" y2="360"></line><rect width="200" height="160" x="800" y="160" opacity="0.15"></rect><line x1="0" y1="320" x2="200" y2="520"></line><line x1="200" y1="320" x2="0" y2="520"></line><rect width="200" height="160" x="0" y="320" opacity="0.15"></rect><line x1="200" y1="320" x2="400" y2="520"></line><line x1="400" y1="320" x2="200" y2="520"></line><rect width="200" height="160" x="200" y="320" opacity="0.15"></rect><line x1="400" y1="320" x2="600" y2="520"></line><line x1="600" y1="320" x2="400" y2="520"></line><rect width="200" height="160" x="400" y="320" opacity="0.15"></rect><line x1="600" y1="320" x2="800" y2="520"></line><line x1="800" y1="320" x2="600" y2="520"></line><rect width="200" height="160" x="600" y="320" opacity="0.15"></rect><line x1="800" y1="320" x2="1000" y2="520"></line><line x1="1000" y1="320" x2="800" y2="520"></line><rect width="200" height="160" x="800" y="320" opacity="0.15"></rect><line x1="0" y1="480" x2="200" y2="680"></line><line x1="200" y1="480" x2="0" y2="680"></line><rect width="200" height="160" x="0" y="480" opacity="0.15"></rect><line x1="200" y1="480" x2="400" y2="680"></line><line x1="400" y1="480" x2="200" y2="680"></line><rect width="200" height="160" x="200" y="480" opacity="0.15"></rect><line x1="400" y1="480" x2="600" y2="680"></line><line x1="600" y1="480" x2="400" y2="680"></line><rect width="200" height="160" x="400" y="480" opacity="0.15"></rect><line x1="600" y1="480" x2="800" y2="680"></line><line x1="800" y1="480" x2="600" y2="680"></line><rect width="200" height="160" x="600" y="480" opacity="0.15"></rect><line x1="800" y1="480" x2="1000" y2="680"></line><line x1="1000" y1="480" x2="800" y2="680"></line><rect width="200" height="160" x="800" y="480" opacity="0.15"></rect><line x1="0" y1="640" x2="200" y2="840"></line><line x1="200" y1="640" x2="0" y2="840"></line><rect width="200" height="160" x="0" y="640" opacity="0.15"></rect><line x1="200" y1="640" x2="400" y2="840"></line><line x1="400" y1="640" x2="200" y2="840"></line><rect width="200" height="160" x="200" y="640" opacity="0.15"></rect><line x1="400" y1="640" x2="600" y2="840"></line><line x1="600" y1="640" x2="400" y2="840"></line><rect width="200" height="160" x="400" y="640" opacity="0.15"></rect><line x1="600" y1="640" x2="800" y2="840"></line><line x1="800" y1="640" x2="600" y2="840"></line><rect width="200" height="160" x="600" y="640" opacity="0.15"></rect><line x1="800" y1="640" x2="1000" y2="840"></line><line x1="1000" y1="640" x2="800" y2="840"></line><rect width="200" height="160" x="800" y="640" opacity="0.15"></rect><line x1="0" y1="800" x2="200" y2="1000"></line><line x1="200" y1="800" x2="0" y2="1000"></line><rect width="200" height="160" x="0" y="800" opacity="0.15"></rect><line x1="200" y1="800" x2="400" y2="1000"></line><line x1="400" y1="800" x2="200" y2="1000"></line><rect width="200" height="160" x="200" y="800" opacity="0.15"></rect><line x1="400" y1="800" x2="600" y2="1000"></line><line x1="600" y1="800" x2="400" y2="1000"></line><rect width="200" height="160" x="400" y="800" opacity="0.15"></rect><line x1="600" y1="800" x2="800" y2="1000"></line><line x1="800" y1="800" x2="600" y2="1000"></line><rect width="200" height="160" x="600" y="800" opacity="0.15"></rect><line x1="800" y1="800" x2="1000" y2="1000"></line><line x1="1000" y1="800" x2="800" y2="1000"></line><rect width="200" height="160" x="800" y="800" opacity="0.15"></rect></g></svg>