<svg version="1.1" xmlns="http://www.w3.org/2000/svg" xmlns:xlink="http://www.w3.org/1999/xlink" width="700" height="700" viewBox="690.5,173.5,700,700"><defs><clipPath id="clip-1"><rect x="890.5" y="465.84385" width="300" height="115.3123" id="clip-1" fill="none"/></clipPath></defs><g id="document" fill-opacity="0" fill="#cccccc" fill-rule="nonzero" stroke="#000000" stroke-width="0" stroke-linecap="butt" stroke-linejoin="miter" stroke-miterlimit="10" stroke-dasharray="" stroke-dashoffset="0" font-family="none" font-weight="none" font-size="none" text-anchor="none" style="mix-blend-mode: normal"><rect x="690.5" y="123.92857" transform="scale(1,1.4)" width="700" height="500" id="Shape 1 1" vector-effect="non-scaling-stroke"/></g><g fill="none" fill-rule="nonzero" stroke="none" stroke-width="1" stroke-linecap="butt" stroke-linejoin="miter" stroke-miterlimit="10" stroke-dasharray="" stroke-dashoffset="0" font-family="none" font-weight="none" font-size="none" text-anchor="none" style="mix-blend-mode: normal"><g><g id="stage"><g id="layer1 1"><g clip-path="url(#clip-1)" id="Group 1"><g id="Group 1"><path d="M1049.57777,509.22598c1.33236,0 2.66471,0 4.03745,0c0,3.49744 0,6.99487 0,10.59829c1.71749,0.35911 1.71749,0.35911 3.46968,0.72548c3.46968,0.72548 3.46968,0.72548 4.60521,1.29324c-0.05881,-3.06343 -0.05881,-3.06343 -1.51404,-5.55149c-0.18926,-1.98718 -0.18926,-1.98718 0,-4.03745c2.01872,-1.51404 2.01872,-1.51404 3.56431,-1.45096c1.4825,0.4416 1.4825,0.4416 2.99654,1.95564c0.18926,1.76638 0.18926,1.76638 0,3.53276c-0.49963,0.49963 -0.99927,0.99927 -1.51404,1.51404c-0.20803,1.78251 -0.22181,3.53305 -0.25037,5.32675c-0.30263,2.06913 -0.68596,2.90074 -2.27304,4.26218c-1.74272,0.24643 -1.74272,0.24643 -3.65893,0.15771c-0.63755,-0.02277 -1.27511,-0.04554 -1.93198,-0.069c-0.72993,-0.04391 -0.72993,-0.04391 -1.47462,-0.08871c0,-0.99927 0,-1.99854 0,-3.02808c-0.66618,-0.16654 -1.33236,-0.33309 -2.01872,-0.50468c0,10.49231 0,20.98462 0,31.79488c0.66618,0 1.33236,0 2.01872,0c0,-1.16581 0,-2.33162 0,-3.53276c1.13469,-0.06826 2.27057,-0.11714 3.40659,-0.15771c0.94852,-0.04391 0.94852,-0.04391 1.91621,-0.08871c1.74272,0.24643 1.74272,0.24643 2.96303,1.29324c0.96801,1.79022 1.05003,3.04584 1.0823,5.07243c-0.03794,2.83615 -0.03794,2.83615 1.73484,4.98372c0.25234,1.73484 0.25234,1.73484 0,3.53276c-1.07245,1.2617 -1.07245,1.2617 -2.5234,2.01872c-1.57713,0 -1.57713,0 -3.02808,-0.50468c-1.51404,-2.01872 -1.51404,-2.01872 -1.51404,-4.54213c0.49963,-0.74945 0.49963,-0.74945 1.00936,-1.51404c0.33309,0 0.66618,0 1.00936,0c0,-1.4989 0,-2.9978 0,-4.54213c-0.37733,0.10929 -0.75465,0.21859 -1.14341,0.3312c-0.49703,0.14052 -0.99406,0.28104 -1.50616,0.42582c-0.49183,0.14052 -0.98365,0.28104 -1.49038,0.42582c-1.41153,0.3312 -1.41153,0.3312 -3.43025,0.3312c0.00585,0.75921 0.01171,1.51842 0.01774,2.30063c0.00455,0.9791 0.0091,1.9582 0.0138,2.96697c0.00585,0.9778 0.01171,1.9556 0.01774,2.96303c-0.04929,2.36766 -0.04929,2.36766 -0.55397,2.87234c-1.98718,0.12617 -1.98718,0.12617 -4.03745,0c-1.24292,-1.86438 -1.29726,-3.34749 -1.51404,-5.55149c-1.01488,-0.18736 -1.01488,-0.18736 -2.05027,-0.37851c-1.79656,-0.38357 -2.75361,-0.7879 -4.38441,-1.76638c-1.5505,-1.06544 -1.5505,-1.06544 -3.05963,-0.56777c-1.15174,0.66687 -1.15174,0.66687 -2.11335,1.7033c-2.11646,0.33671 -2.86358,0.11612 -4.63675,-1.13553c-1.41941,-1.38787 -1.41941,-1.38787 -2.93346,-3.40659c0,-2.5234 0,-2.5234 1.51404,-4.54213c0.33309,0 0.66618,0 1.00936,0c-0.13402,-0.33504 -0.26803,-0.67008 -0.40611,-1.01528c-0.53754,-1.34384 -1.07508,-2.68769 -1.61261,-4.03153c-0.18866,-0.43002 -0.37733,-0.86005 -0.57171,-1.3031c-0.43765,-1.2203 -0.43765,-1.2203 -0.43765,-3.23903c-1.21786,-0.09368 -1.21786,-0.09368 -2.46032,-0.18926c-2.46032,-0.18926 -2.46032,-0.18926 -3.59585,-1.32479c-0.13405,-1.71907 -0.13405,-1.71907 -0.12617,-3.78511c-0.0026,-0.68179 -0.0052,-1.36359 -0.00788,-2.06604c0.13405,-1.71907 0.13405,-1.71907 1.14341,-2.72843c1.50964,-0.20401 3.02433,-0.37458 4.54213,-0.50468c0.03122,-0.40595 0.06245,-0.81191 0.09463,-1.23016c0.38641,-1.69426 0.85904,-2.66432 1.73484,-4.13207c1.46563,-2.10655 1.46563,-2.10655 0.69394,-4.2267c-0.49963,-0.66618 -0.99927,-1.33236 -1.51404,-2.01872c-0.15621,-2.03077 0.15186,-3.11344 1.46673,-4.67618c2.18755,-2.08546 2.18755,-2.08546 3.58008,-2.89403c2.23521,0.12991 3.39426,1.05971 5.04681,2.5234c1.27723,-0.50814 2.5516,-1.02111 3.82059,-1.54953c0.42547,-0.17565 0.85094,-0.35131 1.2893,-0.53228c0.42807,-0.17825 0.85615,-0.35651 1.29719,-0.54016c1.16313,-0.40611 1.16313,-0.40611 2.67717,-0.40611c0.09368,-1.09295 0.09368,-1.09295 0.18926,-2.20798c0.31543,-2.33415 0.31543,-2.33415 1.32479,-3.34351z" id="Path 1" fill="#82e8f2"/><path d="M1049.57777,509.22598c1.33236,0 2.66471,0 4.03745,0c0,3.49744 0,6.99487 0,10.59829c-1.08254,0.20818 -2.16508,0.41636 -3.28042,0.63085c-5.64142,1.23477 -10.50243,3.77503 -13.71509,8.75503c-2.83566,5.54586 -3.55797,10.65599 -1.89847,16.73135c1.67994,4.87534 4.87309,8.59189 9.30505,11.22915c3.18846,1.36767 6.14363,2.03122 9.58893,2.5234c0,3.49744 0,6.99487 0,10.59829c-1.33236,0 -2.66471,0 -4.03745,0c-1.24292,-1.86438 -1.29726,-3.34749 -1.51404,-5.55149c-1.01488,-0.18736 -1.01488,-0.18736 -2.05027,-0.37851c-1.79656,-0.38357 -2.75361,-0.7879 -4.38441,-1.76638c-1.5505,-1.06544 -1.5505,-1.06544 -3.05963,-0.56777c-1.15174,0.66687 -1.15174,0.66687 -2.11335,1.7033c-2.11646,0.33671 -2.86358,0.11612 -4.63675,-1.13553c-1.41941,-1.38787 -1.41941,-1.38787 -2.93346,-3.40659c0,-2.5234 0,-2.5234 1.51404,-4.54213c0.33309,0 0.66618,0 1.00936,0c-0.13402,-0.33504 -0.26803,-0.67008 -0.40611,-1.01528c-0.53754,-1.34384 -1.07508,-2.68769 -1.61261,-4.03153c-0.18866,-0.43002 -0.37733,-0.86005 -0.57171,-1.3031c-0.43765,-1.2203 -0.43765,-1.2203 -0.43765,-3.23903c-1.21786,-0.09368 -1.21786,-0.09368 -2.46032,-0.18926c-2.46032,-0.18926 -2.46032,-0.18926 -3.59585,-1.32479c-0.13405,-1.71907 -0.13405,-1.71907 -0.12617,-3.78511c-0.0026,-0.68179 -0.0052,-1.36359 -0.00788,-2.06604c0.13405,-1.71907 0.13405,-1.71907 1.14341,-2.72843c1.50964,-0.20401 3.02433,-0.37458 4.54213,-0.50468c0.03122,-0.40595 0.06245,-0.81191 0.09463,-1.23016c0.38641,-1.69426 0.85904,-2.66432 1.73484,-4.13207c1.46563,-2.10655 1.46563,-2.10655 0.69394,-4.2267c-0.49963,-0.66618 -0.99927,-1.33236 -1.51404,-2.01872c-0.15621,-2.03077 0.15186,-3.11344 1.46673,-4.67618c2.18755,-2.08546 2.18755,-2.08546 3.58008,-2.89403c2.23521,0.12991 3.39426,1.05971 5.04681,2.5234c1.27723,-0.50814 2.5516,-1.02111 3.82059,-1.54953c0.42547,-0.17565 0.85094,-0.35131 1.2893,-0.53228c0.42807,-0.17825 0.85615,-0.35651 1.29719,-0.54016c1.16313,-0.40611 1.16313,-0.40611 2.67717,-0.40611c0.09368,-1.09295 0.09368,-1.09295 0.18926,-2.20798c0.31543,-2.33415 0.31543,-2.33415 1.32479,-3.34351z" id="Path 1" fill="#0b0b0b"/><path d="M1172.64495,531.77496c3.43645,2.11185 5.38768,4.89713 6.63576,8.74123c0,1.99854 0,3.99707 0,6.05617c-6.16215,0.16654 -12.3243,0.33309 -18.67319,0.50468c2.29202,2.59949 2.29202,2.59949 5.10989,3.15425c2.23412,-0.14414 3.92431,-0.8127 5.99308,-1.64021c1.51404,0 1.51404,0 2.54509,0.82996c0.35716,0.36106 0.71432,0.72213 1.0823,1.09413c0.54159,0.53574 0.54159,0.53574 1.09413,1.0823c0.82996,1.03105 0.82996,1.03105 0.82996,2.54509c-4.90024,3.46396 -9.17125,3.99508 -15.14042,3.53276c-4.48125,-0.97954 -7.8144,-3.63043 -10.31441,-7.4125c-1.55543,-3.29751 -1.92604,-6.95304 -0.94825,-10.48986c1.52745,-3.69503 3.65832,-6.4369 7.19367,-8.30949c4.63125,-1.9055 10.05203,-1.84555 14.59237,0.31148z" id="Path 1" fill="#0d0d0d"/><path d="M951.66972,533.95533c2.79828,2.01843 4.41395,3.78944 5.55149,7.06553c0,2.33162 0,4.66325 0,7.06553c-6.16215,0 -12.3243,0 -18.67319,0c0.81641,2.11126 0.81641,2.11126 2.61803,2.90191c2.67685,0.87765 4.4996,1.1001 7.06553,-0.15771c0.4684,-0.23941 0.93681,-0.47882 1.41941,-0.72548c2.17374,0.54344 2.66972,0.98635 4.16362,2.55495c0.53476,0.55525 0.53476,0.55525 1.08033,1.12173c0.26804,0.28559 0.53607,0.57119 0.81222,0.86545c-2.58106,3.09728 -5.59655,4.34416 -9.51599,4.7373c-5.29518,0.14473 -9.19585,-0.52429 -13.38389,-3.82256c-3.17632,-3.05416 -3.96412,-5.99006 -4.10053,-10.28287c0.14389,-4.36895 1.26123,-6.94893 4.41596,-9.96744c5.32741,-4.38778 12.60763,-4.88284 18.54702,-1.35633z" id="Path 1" fill="#0d0d0d"/><path d="M1013.99779,532.75672c2.79421,1.89607 4.0477,3.62147 5.29915,6.7501c0.07208,3.24815 0.08482,6.49777 0.06309,9.74665c-0.00911,1.75718 -0.01821,3.51435 -0.0276,5.32477c-0.01171,1.35513 -0.02342,2.71026 -0.03548,4.10645c-3.16435,0 -6.3287,0 -9.58893,0c-0.0283,-1.77702 -0.0283,-1.77702 -0.05717,-3.58994c-0.03318,-1.53208 -0.06636,-3.06416 -0.10054,-4.64267c-0.02928,-1.52818 -0.05855,-3.05636 -0.08871,-4.63084c0.1653,-3.69925 0.1653,-3.69925 -1.7723,-5.30506c-2.83607,-0.33435 -2.83607,-0.33435 -5.2676,0.94628c-2.09552,2.84991 -1.47627,6.28607 -1.57713,9.7151c-0.04229,1.39611 -0.08457,2.79223 -0.12814,4.23064c-0.04587,1.62186 -0.04587,1.62186 -0.09265,3.27648c-3.16435,0 -6.3287,0 -9.58893,0c0,-8.66032 0,-17.32064 0,-26.2434c2.9978,0 5.99561,0 9.08425,0c0.16654,0.66618 0.33309,1.33236 0.50468,2.01872c0.70261,-0.48402 0.70261,-0.48402 1.41941,-0.97782c3.61131,-2.33673 7.99823,-2.15417 11.95462,-0.72548z" id="Path 1" fill="#0d0d0d"/><path d="M1111.40116,531.24268c2.79421,1.89607 4.0477,3.62147 5.29915,6.7501c0.07208,3.24815 0.08482,6.49777 0.06309,9.74665c-0.00911,1.75718 -0.01821,3.51435 -0.0276,5.32477c-0.01171,1.35513 -0.02342,2.71026 -0.03548,4.10645c-2.9978,0 -5.99561,0 -9.08425,0c-0.02472,-1.06368 -0.04944,-2.12735 -0.07491,-3.22325c-0.03773,-1.38245 -0.07546,-2.7649 -0.11434,-4.18924c-0.03513,-1.37595 -0.07026,-2.75189 -0.10646,-4.16953c-0.01488,-3.45898 -0.01488,-3.45898 -1.21833,-6.0818c-1.52634,-0.76317 -2.85771,-0.5918 -4.54213,-0.50468c-2.18695,0.84114 -2.18695,0.84114 -3.02808,3.02808c-0.15263,2.56307 -0.25017,5.12959 -0.31543,7.69638c-0.03773,1.387 -0.07546,2.77401 -0.11434,4.20304c-0.02472,1.06953 -0.04944,2.13906 -0.07491,3.241c-2.9978,0 -5.99561,0 -9.08425,0c0,-8.66032 0,-17.32064 0,-26.2434c2.9978,0 5.99561,0 9.08425,0c0.16654,0.49963 0.33309,0.99927 0.50468,1.51404c0.53086,-0.33309 1.06172,-0.66618 1.60867,-1.00936c3.62575,-1.80321 7.53346,-1.5352 11.26069,-0.18926z" id="Path 1" fill="#0a0a0a"/><path d="M899.18293,524.3664c10.15922,0 20.31844,0 30.78552,0c0,2.66471 0,5.32943 0,8.07489c-3.33089,0 -6.66179,0 -10.09361,0c0,8.66032 0,17.32064 0,26.2434c-3.33089,0 -6.66179,0 -10.09361,0c0,-8.66032 0,-17.32064 0,-26.2434c-3.49744,0 -6.99487,0 -10.59829,0c0,-2.66471 0,-5.32943 0,-8.07489z" id="Path 1" fill="#0f0f0f"/><path d="M982.87515,533.24563c2.01972,1.31009 3.23984,2.77445 4.6269,4.74715c-0.16654,0.66618 -0.33309,1.33236 -0.50468,2.01872c-1.48447,0.85954 -1.48447,0.85954 -3.31197,1.64021c-0.60438,0.26283 -1.20875,0.52566 -1.83144,0.79645c-0.70163,0.29275 -0.70163,0.29275 -1.41744,0.59142c-0.30186,-0.40595 -0.60372,-0.81191 -0.91473,-1.23016c-1.00783,-1.40593 -1.00783,-1.40593 -2.61803,-1.79792c-2.35024,-0.12819 -3.40206,-0.06536 -5.55149,1.00936c-1.20527,2.41054 -1.19222,3.89114 -1.00936,6.56085c0.8196,1.83435 1.34302,2.40939 3.02808,3.53276c2.35238,0.17108 3.40262,0.06507 5.55149,-1.00936c0.66618,-0.66618 1.33236,-1.33236 2.01872,-2.01872c2.16508,1.16581 4.33016,2.33162 6.56085,3.53276c-0.64966,3.24828 -1.92871,4.19273 -4.54213,6.05617c-3.93022,2.13748 -8.7843,2.17682 -13.0941,1.1651c-4.238,-1.54874 -7.14424,-4.14405 -9.11185,-8.23063c-1.09696,-4.38786 -1.06008,-8.57261 1.24199,-12.54013c4.65846,-6.51474 13.7518,-8.16686 20.87919,-4.82404z" id="Path 1" fill="#0d0d0d"/><path d="M1143.03833,531.30576c2.68478,1.58446 4.54667,2.84791 5.96154,5.67766c0,0.33309 0,0.66618 0,1.00936c-1.07104,0.59134 -2.14382,1.17955 -3.21734,1.76638c-0.59722,0.32789 -1.19444,0.65577 -1.80975,0.99359c-1.53375,0.77279 -1.53375,0.77279 -2.54312,0.77279c-0.68327,-0.83274 -1.35597,-1.67425 -2.01872,-2.5234c-1.54649,-0.77325 -2.83457,-0.62045 -4.54213,-0.50468c-2.11135,0.93838 -2.46239,1.39201 -3.53276,3.53276c-0.21652,2.2374 -0.14479,3.6912 0.72548,5.77229c1.26819,1.49365 1.26819,1.49365 3.53276,1.82947c2.26988,-0.03109 3.13128,-0.10763 4.82601,-1.54558c0.33309,-0.49963 0.66618,-0.99927 1.00936,-1.51404c2.78424,0.7853 5.07691,2.09723 7.57021,3.53276c-0.85735,2.72793 -2.43908,4.28964 -4.76292,5.89846c-4.03343,2.06591 -8.41829,2.35087 -12.82599,1.34253c-3.94576,-1.42316 -6.77003,-3.7189 -8.87528,-7.33561c-1.77875,-4.34015 -1.64409,-7.90105 0.05717,-12.21091c3.57838,-7.07232 13.38063,-9.54211 20.44548,-6.49382z" id="Path 1" fill="#0d0d0d"/><path d="M1053.11054,523.86172c1.71898,1.71898 0.54762,4.83968 0.57171,7.27056c-0.0013,2.84687 -0.0026,5.69375 -0.00394,8.62689c0.0013,2.84687 0.0026,5.69375 0.00394,8.62689c-0.06703,6.76588 -0.06703,6.76588 -0.57171,7.27056c-4.32084,-0.12002 -7.45446,-1.00974 -10.63969,-4.02167c-1.52402,-1.6637 -2.4344,-2.85343 -2.98669,-5.06258c-0.33309,0 -0.66618,0 -1.00936,0c-1.58583,-4.10673 -1.46347,-8.50939 -0.53622,-12.77473c2.56297,-4.58227 5.95102,-7.83524 10.94526,-9.55739c1.7033,-0.37851 1.7033,-0.37851 4.2267,-0.37851z" id="Path 1" fill="#080a0a"/><path d="M919.87484,475.41237c12.61702,0 12.61702,0 17.15914,1.51404c2.49166,2.53615 3.60794,3.9515 3.69048,7.44404c-0.02551,2.66521 -0.3121,4.16684 -2.17644,6.18234c-1.38787,1.19862 -1.38787,1.19862 -2.5234,2.01872c0.72527,2.09184 1.76152,3.66198 3.09117,5.42532c1.95564,2.60288 1.95564,2.60288 1.95564,3.15425c-2.7756,0.62675 -2.7756,0.62675 -4.54213,0c-1.15919,-1.55544 -1.15919,-1.55544 -2.33415,-3.50122c-1.76684,-2.83379 -1.76684,-2.83379 -4.71561,-4.14587c-2.32631,-0.16242 -2.32631,-0.16242 -5.56726,0.07688c0,2.49817 0,4.99634 0,7.57021c-1.33236,0 -2.66471,0 -4.03745,0c0,-8.49378 0,-16.98755 0,-25.73872z" id="Path 1" fill="#0c0c0c"/><path d="M968.32418,481.46854c1.16581,0 2.33162,0 3.53276,0c0.33309,0.66618 0.66618,1.33236 1.00936,2.01872c0.66618,-0.49963 1.33236,-0.99927 2.01872,-1.51404c2.71566,-0.90522 5.24885,-0.77379 7.94872,0.12617c2.81137,1.51382 4.644,2.82902 5.67766,5.93c0.42203,3.94755 0.35927,7.26911 -2.01872,10.59829c-3.1374,2.30403 -5.69136,3.35288 -9.58893,3.02808c-2.23952,-1.00936 -2.23952,-1.00936 -4.03745,-2.01872c-0.16654,2.83126 -0.33309,5.66252 -0.50468,8.57957c-1.33236,0 -2.66471,0 -4.03745,0c0,-8.82687 0,-17.65373 0,-26.74808z" id="Path 1" fill="#0e0e0e"/><path d="M1097.01776,483.48727c2.36731,2.428 3.1812,4.65082 3.21734,8.01181c-0.04666,2.81396 -0.17279,4.53518 -2.20798,6.62393c-2.42433,2.31893 -4.37709,3.33902 -7.69638,3.72202c-3.08884,-0.30888 -5.89251,-1.21482 -8.16952,-3.37505c-1.77428,-3.05176 -2.6377,-5.35224 -2.30261,-8.92654c1.16917,-3.44905 2.75559,-5.91992 6.05617,-7.57021c4.29098,-1.07274 7.31677,-0.57685 11.10298,1.51404z" id="Path 1" fill="#0e0e0e"/><path d="M958.35674,482.28865c2.64917,1.67781 4.61664,3.66242 5.42532,6.7501c0,1.33236 0,2.66471 0,4.03745c-5.16288,0 -10.32577,0 -15.6451,0c1.54956,3.2756 1.54956,3.2756 4.54213,4.54213c2.27744,0.21351 3.6209,0.20828 5.67766,-0.82011c0.458,-0.229 0.916,-0.458 1.38787,-0.69394c0.66618,0.33309 1.33236,0.66618 2.01872,1.00936c0,0.66618 0,1.33236 0,2.01872c-2.91234,2.31663 -5.41883,2.73902 -9.08425,2.5234c-3.75688,-1.12146 -5.83843,-2.20508 -7.72792,-5.67766c-1.2075,-2.99913 -1.12033,-5.39158 -0.31543,-8.51649c1.34337,-2.68674 3.12878,-4.18373 5.7092,-5.67766c2.90615,-0.69194 5.22573,-0.56058 8.01181,0.50468z" id="Path 1" fill="#111111"/><path d="M1142.56519,482.28865c2.59399,1.64286 4.01247,3.13152 5.07835,6.02463c0.34697,1.73484 0.34697,1.73484 0.34697,4.25824c-0.50468,0.50468 -0.50468,0.50468 -3.86593,0.55397c-2.09905,-0.00879 -2.09905,-0.00879 -4.2405,-0.01774c-1.40067,-0.00455 -2.80133,-0.00911 -4.24445,-0.0138c-1.08709,-0.00586 -2.17418,-0.01171 -3.29422,-0.01774c1.54956,3.2756 1.54956,3.2756 4.54213,4.54213c2.27744,0.21351 3.6209,0.20828 5.67766,-0.82011c0.458,-0.229 0.916,-0.458 1.38787,-0.69394c0.66618,0.33309 1.33236,0.66618 2.01872,1.00936c0,0.66618 0,1.33236 0,2.01872c-2.91234,2.31663 -5.41883,2.73902 -9.08425,2.5234c-3.54557,-1.0207 -6.08384,-2.4013 -8.01181,-5.61457c-1.04122,-3.58641 -1.13208,-6.36238 0.53622,-9.74665c3.54054,-4.48468 7.56018,-6.14443 13.15324,-4.0059z" id="Path 1" fill="#111111"/><path d="M1040.68278,482.22556c2.32186,1.60129 2.84569,2.65501 3.84819,5.29915c0.19714,3.37505 0.19714,3.37505 0.12617,7.06553c-0.01821,1.22827 -0.03643,2.45653 -0.0552,3.72202c-0.02342,0.93681 -0.04684,1.87363 -0.07097,2.83883c-1.33236,0 -2.66471,0 -4.03745,0c-0.16654,-0.33309 -0.33309,-0.66618 -0.50468,-1.00936c-0.49963,0.24982 -0.99927,0.49963 -1.51404,0.75702c-2.7752,1.0407 -4.89666,1.18069 -7.69638,0.15771c-1.57581,-1.0386 -2.4591,-1.79824 -3.40659,-3.43814c-0.2833,-2.2664 -0.3141,-3.52143 0.88319,-5.4884c2.46836,-2.33123 4.5745,-2.19129 7.82255,-2.14489c1.23738,0.01366 1.23738,0.01366 2.49974,0.0276c0.94853,0.01756 0.94853,0.01756 1.91621,0.03548c-0.55407,-2.72925 -0.55407,-2.72925 -2.5234,-4.54213c-3.35165,-0.22051 -5.54363,-0.06993 -8.57957,1.51404c-0.49963,-0.66618 -0.99927,-1.33236 -1.51404,-2.01872c1.00936,-2.01872 1.00936,-2.01872 3.02808,-2.90191c3.43034,-0.99662 6.34583,-1.05064 9.77819,0.12617z" id="Path 1" fill="#0e0e0e"/><path d="M1004.59811,482.09939c1.83863,1.02963 3.15015,2.01051 4.10053,3.91128c0.03677,2.54419 0.04223,5.08886 0.03154,7.6333c-0.00455,1.39611 -0.00911,2.79223 -0.0138,4.23064c-0.00586,1.08124 -0.01171,2.16248 -0.01774,3.27648c-1.16581,0 -2.33162,0 -3.53276,0c-0.16654,-0.33309 -0.33309,-0.66618 -0.50468,-1.00936c-0.49963,0.24982 -0.99927,0.49963 -1.51404,0.75702c-3.13974,1.1774 -5.16282,1.12712 -8.26415,-0.15771c-1.82947,-1.10399 -1.82947,-1.10399 -2.83883,-2.61803c-0.40481,-4.51071 -0.40481,-4.51071 1.16707,-6.59239c2.45844,-1.77236 4.53763,-1.5351 7.50713,-1.51404c0.82947,0.00455 1.65894,0.00911 2.51355,0.0138c0.9573,0.00879 0.9573,0.00879 1.93395,0.01774c-0.64548,-2.01581 -0.64548,-2.01581 -1.51404,-4.03745c-2.67983,-0.89327 -5.20025,-0.87817 -7.79101,0.25234c-0.42677,0.24982 -0.85354,0.49963 -1.29324,0.75702c-0.33309,0 -0.66618,0 -1.00936,0c-1.00936,-2.01872 -1.00936,-2.01872 -1.00936,-3.53276c4.23889,-1.93778 7.44315,-2.87371 12.04925,-1.38787z" id="Path 1" fill="#0c0c0c"/><path d="M1105.09265,481.46854c1.16581,0 2.33162,0 3.53276,0c0.16654,0.66618 0.33309,1.33236 0.50468,2.01872c0.85874,-0.49963 0.85874,-0.49963 1.73484,-1.00936c3.32737,-1.45858 5.6032,-1.4412 9.02117,-0.25234c2.35553,1.59697 2.87075,2.63208 3.87973,5.29915c0.19714,3.37505 0.19714,3.37505 0.12617,7.06553c-0.01821,1.22827 -0.03643,2.45653 -0.0552,3.72202c-0.02342,0.93681 -0.04684,1.87363 -0.07097,2.83883c-1.33236,0 -2.66471,0 -4.03745,0c-0.00716,-0.91795 -0.01431,-1.83589 -0.02169,-2.78166c-0.02407,-1.19509 -0.04814,-2.39017 -0.07294,-3.62148c-0.01756,-1.18858 -0.03513,-2.37716 -0.05323,-3.60176c-0.09692,-3.02377 -0.09692,-3.02377 -1.51602,-4.78461c-1.89345,-1.18751 -3.20825,-1.0993 -5.40166,-0.85559c-2.18695,0.84114 -2.18695,0.84114 -3.02808,3.02808c-0.15138,2.14213 -0.24972,4.28822 -0.31543,6.43468c-0.03773,1.1528 -0.07546,2.3056 -0.11434,3.49334c-0.02472,0.88737 -0.04944,1.77474 -0.07491,2.689c-1.33236,0 -2.66471,0 -4.03745,0c0,-6.49524 0,-12.99048 0,-19.68255z" id="Path 1" fill="#0e0e0e"/><path d="M1166.15901,482.98259c-0.30374,1.01968 -0.64249,2.02938 -1.00936,3.02808c-0.49963,0.24982 -0.49963,0.24982 -1.00936,0.50468c-0.37798,-0.15353 -0.75596,-0.30707 -1.14539,-0.46526c-1.51517,-0.59826 -2.62686,-0.67912 -4.24839,-0.67028c-0.48077,-0.0026 -0.96153,-0.0052 -1.45687,-0.00788c-1.3156,0.01481 -1.3156,0.01481 -2.23361,1.14341c0,0.66618 0,1.33236 0,2.01872c1.65141,0.77066 3.23363,1.16272 5.01526,1.4825c2.07303,0.39545 3.77268,0.9188 5.58303,2.05027c1.33182,1.99773 1.22463,3.1835 1.00936,5.55149c-1.02999,1.93122 -1.90765,2.46881 -3.87973,3.43814c-4.28615,1.18024 -7.6889,0.593 -11.76537,-0.91473c-0.33309,-0.49963 -0.66618,-0.99927 -1.00936,-1.51404c0.49963,-0.83272 0.99927,-1.66545 1.51404,-2.5234c0.55168,0.24982 1.10336,0.49963 1.67175,0.75702c2.71824,0.86983 6.23681,1.5972 8.92654,0.25234c0,-0.83272 0,-1.66545 0,-2.5234c-0.54778,-0.11645 -1.09555,-0.2329 -1.65993,-0.35288c-0.72213,-0.16459 -1.44425,-0.32918 -2.18827,-0.49877c-0.71432,-0.15809 -1.42864,-0.31617 -2.16461,-0.47905c-2.216,-0.73937 -3.45532,-1.55899 -5.09018,-3.21142c-0.62036,-2.00705 -0.62283,-3.13104 -0.03154,-5.14143c3.74772,-5.11053 10.05418,-3.93765 15.17196,-1.9241z" id="Path 1" fill="#101010"/><path d="M1063.92963,482.32019c1.74121,1.13026 2.48123,1.82132 3.31197,3.69048c-0.66618,0.49963 -1.33236,0.99927 -2.01872,1.51404c-1.34582,-0.67291 -2.69163,-1.34582 -4.03745,-2.01872c-2.2812,-0.22076 -3.66403,-0.17979 -5.74074,0.82011c-1.56234,1.41354 -1.97615,2.15826 -2.33415,4.2267c0.03752,2.43886 0.16325,3.62598 1.73484,5.51995c2.04664,1.6473 3.20909,1.67912 5.83537,1.54558c1.42103,-0.38221 1.42103,-0.38221 2.5234,-1.00936c0.16654,-0.33309 0.33309,-0.66618 0.50468,-1.00936c1.19862,0.15771 1.19862,0.15771 2.5234,0.50468c0.33309,0.49963 0.66618,0.99927 1.00936,1.51404c-2.36258,2.64895 -4.48364,3.88768 -8.04335,4.2267c-3.36178,-0.31032 -5.40153,-1.00441 -7.79101,-3.43814c-2.48355,-3.37054 -2.67196,-5.81905 -2.33415,-9.87282c1.00098,-3.17958 3.39687,-5.07512 6.21388,-6.7501c3.1841,-0.74049 5.63281,-0.60837 8.64266,0.53622z" id="Path 1" fill="#0d0d0d"/><path d="M980.43652,485.00131c2.06531,0.91791 2.62919,1.6551 4.03745,3.53276c0.69167,3.01371 0.58385,4.89772 -1.00936,7.57021c-1.71909,1.55917 -2.73707,1.98235 -5.04681,2.27106c-2.2665,-0.28331 -3.32371,-0.79412 -5.04681,-2.27106c-1.20387,-2.40774 -1.34937,-4.43664 -1.00936,-7.06553c1.84337,-3.68674 4.08354,-4.34447 8.07489,-4.03745z" id="Path 1" fill="#cccccc"/><path d="M1091.97095,485.00131c2.30205,0.94175 3.40555,2.35317 4.54213,4.54213c0.33083,2.64666 -0.12668,4.29996 -1.51404,6.56085c-1.7135,1.7135 -2.36218,1.9694 -4.73138,2.14489c-2.76571,-0.19074 -3.94117,-1.22851 -5.86691,-3.15425c-0.83763,-2.5129 -0.9237,-5.04169 0.09463,-7.50713c2.19156,-2.56942 4.14767,-2.89848 7.47558,-2.58649z" id="Path 1" fill="#cccccc"/><path d="M923.91228,478.94514c8.27753,-0.21976 8.27753,-0.21976 11.10298,1.51404c1.51404,1.51404 1.51404,1.51404 1.76638,3.97436c-0.05516,1.98852 -0.17163,2.47961 -1.41941,4.13207c-2.39579,1.7272 -4.36101,1.5358 -7.25478,1.51404c-2.0766,-0.01561 -2.0766,-0.01561 -4.19516,-0.03154c0,-3.66398 0,-7.32796 0,-11.10298z" id="Path 1" fill="#cccccc"/><path d="M1075.82117,520.83364c1.23016,0.85165 1.23016,0.85165 2.01872,2.01872c0,0.83272 0,1.66545 0,2.5234c-0.49963,0.49963 -0.99927,0.99927 -1.51404,1.51404c-0.2177,1.41241 -0.2177,1.41241 -0.2208,2.965c-0.11771,2.02808 -0.18865,2.9345 -1.2617,4.69984c-2.87461,2.52617 -7.10188,1.46426 -10.69292,1.45096c-1.58348,-0.00455 -3.16695,-0.00911 -4.79841,-0.0138c-1.22696,-0.00586 -2.45393,-0.01171 -3.71808,-0.01774c0,-0.83272 0,-1.66545 0,-2.5234c5.49597,-0.16654 10.99195,-0.33309 16.65446,-0.50468c0.16654,-1.99854 0.33309,-3.99707 0.50468,-6.05617c-0.66618,-0.33309 -1.33236,-0.66618 -2.01872,-1.00936c-0.50468,-1.45096 -0.50468,-1.45096 -0.50468,-3.02808c1.43928,-2.27886 2.9874,-2.38502 5.55149,-2.01872z" id="Path 1" fill="#151515"/><path d="M1055.63394,543.54427c2.80707,-0.05436 5.61445,-0.09359 8.42186,-0.12617c1.56331,-0.02342 3.12661,-0.04684 4.7373,-0.07097c3.99999,0.19714 3.99999,0.19714 6.52339,2.21586c0.86537,1.73073 0.68058,3.7167 0.76885,5.62837c0.12769,1.6174 0.12769,1.6174 1.75455,2.9512c-0.06309,1.79792 -0.06309,1.79792 -0.50468,3.53276c-1.8777,1.2518 -2.82519,1.24322 -5.04681,1.00936c-1.2617,-0.82011 -1.2617,-0.82011 -2.01872,-2.01872c0,-1.57713 0,-1.57713 0.50468,-3.02808c0.66618,-0.33309 1.33236,-0.66618 2.01872,-1.00936c-0.24982,-2.9978 -0.24982,-2.9978 -0.50468,-6.05617c-5.49597,-0.16654 -10.99195,-0.33309 -16.65446,-0.50468c0,-0.83272 0,-1.66545 0,-2.5234z" id="Path 1" fill="#161616"/><path d="M1015.25949,481.46854c1.16581,0 2.33162,0 3.53276,0c0.16654,0.83272 0.33309,1.66545 0.50468,2.5234c0.33309,-0.32268 0.66618,-0.64536 1.00936,-0.97782c1.8647,-1.28198 3.32073,-1.39435 5.55149,-1.54558c0,1.33236 0,2.66471 0,4.03745c-0.71823,0.12491 -1.43645,0.24982 -2.17644,0.37851c-2.52722,0.41277 -2.52722,0.41277 -3.87973,2.64957c-0.18688,2.13987 -0.29219,4.28737 -0.34697,6.43468c-0.03318,1.1528 -0.06636,2.3056 -0.10054,3.49334c-0.01886,0.88737 -0.03773,1.77474 -0.05717,2.689c-1.33236,0 -2.66471,0 -4.03745,0c0,-6.49524 0,-12.99048 0,-19.68255z" id="Path 1" fill="#0e0e0e"/><path d="M1082.63436,536.28948c1.76638,0.18926 1.76638,0.18926 3.28042,1.7033c0.25234,1.73484 0.25234,1.73484 0,3.53276c-1.10399,1.2617 -1.10399,1.2617 -2.5234,2.01872c-1.35633,0 -1.35633,0 -2.5234,-0.50468c-0.33309,-0.66618 -0.66618,-1.33236 -1.00936,-2.01872c-7.99414,0 -15.98828,0 -24.22467,0c0,-0.83272 0,-1.66545 0,-2.5234c1.69472,-0.01886 3.38945,-0.03773 5.13552,-0.05717c2.18785,-0.03318 4.3757,-0.06636 6.62985,-0.10054c2.18395,-0.02928 4.3679,-0.05855 6.61802,-0.08871c5.47111,-0.26477 4.65434,-1.53698 8.61703,-1.96155z" id="Path 1" fill="#111111"/><path d="M1071.27904,481.46854c1.33236,0 2.66471,0 4.03745,0c0,6.49524 0,12.99048 0,19.68255c-1.33236,0 -2.66471,0 -4.03745,0c0,-6.49524 0,-12.99048 0,-19.68255z" id="Path 1" fill="#0f0f0f"/><path d="M1055.63394,552.12384c1.13469,-0.06826 2.27057,-0.11714 3.40659,-0.15771c0.63235,-0.02928 1.2647,-0.05855 1.91621,-0.08871c1.74272,0.24643 1.74272,0.24643 2.96303,1.29324c0.96801,1.79022 1.05003,3.04584 1.0823,5.07243c-0.03794,2.83615 -0.03794,2.83615 1.73484,4.98372c0.25234,1.73484 0.25234,1.73484 0,3.53276c-1.07245,1.2617 -1.07245,1.2617 -2.5234,2.01872c-1.57713,0 -1.57713,0 -3.02808,-0.50468c-1.51404,-2.01872 -1.51404,-2.01872 -1.51404,-4.54213c0.33309,-0.49963 0.66618,-0.99927 1.00936,-1.51404c0.49963,0 0.99927,0 1.51404,0c0,-2.49817 0,-4.99634 0,-7.57021c-2.16508,0 -4.33016,0 -6.56085,0c0,-0.83272 0,-1.66545 0,-2.5234z" id="Path 1" fill="#131313"/><path d="M1063.74038,510.80311c1.4825,0.4416 1.4825,0.4416 2.99654,1.95564c0.18926,1.76638 0.18926,1.76638 0,3.53276c-0.49963,0.49963 -0.99927,0.99927 -1.51404,1.51404c-0.20803,1.78251 -0.22181,3.53305 -0.25037,5.32675c-0.30263,2.06913 -0.68596,2.90074 -2.27304,4.26218c-1.74272,0.24643 -1.74272,0.24643 -3.65893,0.15771c-0.63755,-0.02277 -1.27511,-0.04554 -1.93198,-0.069c-0.72993,-0.04391 -0.72993,-0.04391 -1.47462,-0.08871c0,-0.83272 0,-1.66545 0,-2.5234c1.99854,-0.16654 3.99707,-0.33309 6.05617,-0.50468c0.04089,-1.06161 0.07025,-2.12368 0.09463,-3.1858c0.01756,-0.59136 0.03513,-1.18273 0.05323,-1.79201c0.00633,-1.75098 0.00633,-1.75098 -1.6619,-3.09708c-0.2208,-2.01872 -0.2208,-2.01872 0,-4.03745c2.01872,-1.51404 2.01872,-1.51404 3.56431,-1.45096z" id="Path 1" fill="#0c0c0c"/><path d="M1002.01162,492.53998c0.88607,0.00683 0.88607,0.00683 1.79004,0.0138c0.45019,0.00586 0.90038,0.01171 1.36421,0.01774c0.12223,2.85066 0.12223,2.85066 -0.97782,4.4475c-2.05288,1.46634 -3.58968,1.57349 -6.08771,1.60867c-0.66618,-0.33309 -1.33236,-0.66618 -2.01872,-1.00936c-0.4416,-1.4825 -0.4416,-1.4825 -0.50468,-3.02808c1.63345,-2.45018 3.71184,-2.07749 6.43468,-2.05027z" id="Path 1" fill="#cccccc"/><path d="M956.21185,485.00131c1.83435,0.8196 2.40939,1.34302 3.53276,3.02808c0,0.66618 0,1.33236 0,2.01872c-3.83053,0 -7.66105,0 -11.60766,0c0.50468,-2.5234 0.50468,-2.5234 1.76638,-3.94282c2.27822,-1.42389 3.66328,-1.40204 6.30851,-1.10399z" id="Path 1" fill="#cccccc"/><path d="M1140.4203,485.00131c1.76638,1.10399 1.76638,1.10399 3.02808,2.5234c0.16654,0.83272 0.33309,1.66545 0.50468,2.5234c-3.83053,0 -7.66105,0 -11.60766,0c0.5083,-2.5415 0.67651,-2.97506 2.5234,-4.54213c1.83792,-0.91896 3.54459,-0.66312 5.55149,-0.50468z" id="Path 1" fill="#cccccc"/><path d="M1037.30773,492.53998c0.8929,0.00683 0.8929,0.00683 1.80384,0.0138c0.45604,0.00586 0.91209,0.01171 1.38196,0.01774c0.12617,2.85066 0.12617,2.85066 -1.00936,4.4475c-1.9227,1.40197 -3.18449,1.60867 -5.55149,1.60867c-1.4825,-0.56777 -1.4825,-0.56777 -2.5234,-1.51404c-0.50468,-1.2617 -0.50468,-1.2617 -0.50468,-2.5234c2.1398,-2.1398 3.48741,-2.07913 6.40314,-2.05027z" id="Path 1" fill="#cccccc"/><path d="M946.11823,539.00214c1.54558,1.4825 1.54558,1.4825 2.5234,3.02808c0,0.33309 0,0.66618 0,1.00936c-3.49744,0 -6.99487,0 -10.59829,0c1.72008,-4.3002 3.51539,-5.17732 8.07489,-4.03745z" id="Path 1" fill="#cccccc"/><path d="M1167.67306,537.4881c1.51404,1.19862 1.51404,1.19862 2.5234,2.5234c0,0.49963 0,0.99927 0,1.51404c-3.33089,0 -6.66179,0 -10.09361,0c0.50468,-2.5234 0.50468,-2.5234 1.79792,-3.72202c2.23763,-1.05779 3.39671,-0.95646 5.77229,-0.31543z" id="Path 1" fill="#cccccc"/><path d="M1055.63394,548.08639c3.99707,0 7.99414,0 12.11234,0c-0.16654,0.83272 -0.33309,1.66545 -0.50468,2.5234c-3.83053,0 -7.66105,0 -11.60766,0c0,-0.83272 0,-1.66545 0,-2.5234z" id="Path 1" fill="#141515"/><path d="M1055.63394,528.90853c3.83053,0 7.66105,0 11.60766,0c0.16654,0.83272 0.33309,1.66545 0.50468,2.5234c-3.99707,0 -7.99414,0 -12.11234,0c0,-0.83272 0,-1.66545 0,-2.5234z" id="Path 1" fill="#171818"/><path d="M1064.21351,517.30087c0.33309,0.16654 0.66618,0.33309 1.00936,0.50468c-0.03046,1.12539 -0.07531,2.2504 -0.12617,3.37505c-0.03513,0.93974 -0.03513,0.93974 -0.07097,1.89847c-0.35608,2.07481 -0.72788,2.94537 -2.32627,4.31541c-1.74272,0.24643 -1.74272,0.24643 -3.65893,0.15771c-0.63755,-0.02277 -1.27511,-0.04554 -1.93198,-0.069c-0.48662,-0.02928 -0.97325,-0.05855 -1.47462,-0.08871c0,-0.83272 0,-1.66545 0,-2.5234c0.6382,-0.01952 0.6382,-0.01952 1.2893,-0.03943c0.55298,-0.02863 1.10596,-0.05725 1.6757,-0.08674c0.55038,-0.02342 1.10075,-0.04684 1.66781,-0.07097c0.46971,-0.10149 0.93941,-0.20298 1.42336,-0.30754c0.33309,-0.66618 0.66618,-1.33236 1.00936,-2.01872c0.33309,0.16654 0.66618,0.33309 1.00936,0.50468c0.16654,-1.83199 0.33309,-3.66398 0.50468,-5.55149z" id="Path 1" fill="#182f32"/><path d="M1055.63394,552.12384c1.13469,-0.06826 2.27057,-0.11714 3.40659,-0.15771c0.63235,-0.02928 1.2647,-0.05855 1.91621,-0.08871c1.74272,0.24643 1.74272,0.24643 2.95711,1.27156c1.00976,1.88092 1.10888,3.31451 1.18285,5.44109c0.02863,0.67984 0.05725,1.35968 0.08674,2.06012c0.01301,0.5172 0.02602,1.0344 0.03943,1.56727c-0.33309,0 -0.66618,0 -1.00936,0c0,-1.99854 0,-3.99707 0,-6.05617c-0.66618,0.16654 -1.33236,0.33309 -2.01872,0.50468c0,-0.66618 0,-1.33236 0,-2.01872c-2.16508,0 -4.33016,0 -6.56085,0c0,-0.83272 0,-1.66545 0,-2.5234z" id="Path 1" fill="#193032"/></g></g></g></g></g></g></svg>